<svg width="375" height="639" viewBox="0 0 375 639" fill="none" xmlns="http://www.w3.org/2000/svg">
<g clip-path="url(#clip0_1_15205)">
<path d="M304.282 949.645C194.356 953.127 -46.0655 880.59 -128.346 562.584C-231.197 165.076 -72 -294.582 -281.898 -278.284C-491.797 -261.987 -646.451 -284.522 -571.969 -443.878C-497.488 -603.233 -182.347 -769.579 -430.9 -1025.88" stroke="#378437" stroke-opacity="0.06" stroke-width="1.05401"/>
<path d="M335.624 935.83C225.698 939.312 -14.7237 866.775 -97.0045 548.769C-199.855 151.261 -40.6582 -308.397 -250.556 -292.099C-460.455 -275.802 -615.109 -298.337 -540.628 -457.693C-466.146 -617.048 -151.006 -783.394 -399.558 -1039.7" stroke="#378437" stroke-opacity="0.06" stroke-width="1.05401"/>
<path d="M373.235 919.251C263.309 922.733 22.8876 850.196 -59.3931 532.19C-162.244 134.682 -3.04691 -324.975 -212.945 -308.678C-422.843 -292.381 -577.497 -314.916 -503.016 -474.271C-428.535 -633.627 -113.394 -799.973 -361.947 -1056.28" stroke="#378437" stroke-opacity="0.06" stroke-width="1.05401"/>
<path d="M410.846 902.673C300.921 906.156 60.499 833.619 -21.7818 515.613C-124.633 118.105 34.5644 -341.553 -175.334 -325.256C-385.232 -308.958 -539.886 -331.493 -465.405 -490.849C-390.924 -650.205 -75.7829 -816.55 -324.336 -1072.85" stroke="#378437" stroke-opacity="0.06" stroke-width="1.05401"/>
<path d="M448.458 886.095C338.532 889.578 98.1103 817.041 15.8295 499.034C-87.0214 101.527 72.1757 -358.131 -137.723 -341.834C-347.621 -325.536 -502.275 -348.071 -427.794 -507.427C-353.312 -666.783 -38.1716 -833.128 -286.724 -1089.43" stroke="#378437" stroke-opacity="0.06" stroke-width="1.05401"/>
<path d="M486.069 869.517C376.143 872.999 135.722 800.463 53.4409 482.456C-49.4101 84.9485 109.787 -374.709 -100.111 -358.412C-310.009 -342.115 -464.663 -364.649 -390.182 -524.005C-315.701 -683.361 -0.560231 -849.707 -249.113 -1106.01" stroke="#378437" stroke-opacity="0.06" stroke-width="1.05401"/>
<path d="M523.68 852.939C413.755 856.421 173.333 783.884 91.0522 465.878C-11.7988 68.3704 147.398 -391.287 -62.4998 -374.99C-272.398 -358.693 -427.052 -381.228 -352.571 -540.583C-278.09 -699.939 37.0511 -866.285 -211.502 -1122.59" stroke="#378437" stroke-opacity="0.06" stroke-width="1.05401"/>
<path d="M561.292 836.361C451.366 839.843 210.944 767.306 128.664 449.3C25.8125 51.7923 185.01 -407.865 -24.8885 -391.568C-234.787 -375.271 -389.441 -397.806 -314.96 -557.161C-240.478 -716.517 74.6624 -882.863 -173.89 -1139.17" stroke="#378437" stroke-opacity="0.06" stroke-width="1.05401"/>
<path d="M598.903 819.783C488.977 823.265 248.556 750.728 166.275 432.722C63.4239 35.2142 222.621 -424.443 12.7228 -408.146C-197.175 -391.849 -351.829 -414.384 -277.348 -573.74C-202.867 -733.095 112.274 -899.441 -136.279 -1155.74" stroke="#378437" stroke-opacity="0.06" stroke-width="1.05401"/>
<path d="M636.514 803.205C526.589 806.687 286.167 734.15 203.886 416.144C101.035 18.636 260.232 -441.022 50.3341 -424.724C-159.564 -408.427 -314.218 -430.962 -239.737 -590.318C-165.256 -749.673 149.885 -916.019 -98.6678 -1172.32" stroke="#378437" stroke-opacity="0.06" stroke-width="1.05401"/>
<path d="M674.126 786.626C564.2 790.109 323.778 717.572 241.497 399.566C138.647 2.0579 297.844 -457.6 87.9455 -441.302C-121.953 -425.005 -276.607 -447.54 -202.126 -606.896C-127.645 -766.251 187.496 -932.597 -61.0565 -1188.9" stroke="#378437" stroke-opacity="0.06" stroke-width="1.05401"/>
<path d="M705.176 773.624C595.251 777.106 354.829 704.569 272.548 386.563C169.697 -10.9445 328.894 -470.602 118.996 -454.305C-90.902 -438.008 -245.556 -460.543 -171.075 -619.898C-96.5937 -779.254 218.547 -945.6 -30.0057 -1201.9" stroke="#378437" stroke-opacity="0.06" stroke-width="1.05401"/>
<path d="M736.518 759.809C626.592 763.291 386.171 690.755 303.89 372.748C201.039 -24.7595 360.236 -484.417 150.338 -468.12C-59.5602 -451.823 -214.214 -474.358 -139.733 -633.713C-65.2519 -793.069 249.889 -959.415 1.33607 -1215.72" stroke="#378437" stroke-opacity="0.06" stroke-width="1.05401"/>
<path d="M774.129 743.23C664.204 746.713 423.782 674.176 341.501 356.17C238.65 -41.3381 397.848 -500.996 187.949 -484.698C-21.9489 -468.401 -176.603 -490.936 -102.122 -650.292C-27.6406 -809.647 287.5 -975.993 38.9474 -1232.3" stroke="#378437" stroke-opacity="0.06" stroke-width="1.05401"/>
<path d="M811.741 726.653C701.815 730.135 461.394 657.598 379.113 339.592C276.262 -57.9157 435.459 -517.573 225.561 -501.276C15.6625 -484.979 -138.992 -507.514 -64.5104 -666.869C9.97072 -826.225 325.112 -992.571 76.5587 -1248.87" stroke="#378437" stroke-opacity="0.06" stroke-width="1.05401"/>
<path d="M849.352 710.075C739.426 713.557 499.005 641.02 416.724 323.014C313.873 -74.4939 473.07 -534.151 263.172 -517.854C53.2738 -501.557 -101.38 -524.092 -26.8991 -683.448C47.5821 -842.803 362.723 -1009.15 114.17 -1265.45" stroke="#378437" stroke-opacity="0.06" stroke-width="1.05401"/>
<path d="M886.963 693.497C777.038 696.979 536.616 624.442 454.335 306.436C351.484 -91.072 510.682 -550.73 300.783 -534.432C90.8851 -518.135 -63.7689 -540.67 10.7123 -700.026C85.1934 -859.381 400.334 -1025.73 151.781 -1282.03" stroke="#378437" stroke-opacity="0.06" stroke-width="1.05401"/>
<path d="M924.575 676.918C814.649 680.401 574.227 607.864 491.947 289.858C389.096 -107.65 548.293 -567.308 338.395 -551.01C128.496 -534.713 -26.1575 -557.248 48.3236 -716.604C122.805 -875.959 437.946 -1042.31 189.393 -1298.61" stroke="#378437" stroke-opacity="0.06" stroke-width="1.05401"/>
<path d="M962.186 660.34C852.26 663.823 611.839 591.286 529.558 273.28C426.707 -124.228 585.904 -583.886 376.006 -567.589C166.108 -551.291 11.4538 -573.826 85.9349 -733.182C160.416 -892.538 475.557 -1058.88 227.004 -1315.19" stroke="#378437" stroke-opacity="0.06" stroke-width="1.05401"/>
<path d="M999.797 643.762C889.872 647.245 649.45 574.708 567.169 256.701C464.318 -140.806 623.516 -600.464 413.617 -584.167C203.719 -567.869 49.0651 -590.404 123.546 -749.76C198.027 -909.116 513.168 -1075.46 264.615 -1331.76" stroke="#378437" stroke-opacity="0.06" stroke-width="1.05401"/>
<path d="M1037.41 627.184C927.483 630.666 687.061 558.13 604.781 240.123C501.93 -157.384 661.127 -617.042 451.229 -600.745C241.33 -584.448 86.6765 -606.983 161.158 -766.338C235.639 -925.694 550.78 -1092.04 302.227 -1348.34" stroke="#378437" stroke-opacity="0.06" stroke-width="1.05401"/>
<path d="M1075.02 610.606C965.094 614.088 724.673 541.551 642.392 223.545C539.541 -173.963 698.738 -633.62 488.84 -617.323C278.942 -601.026 124.288 -623.561 198.769 -782.916C273.25 -942.272 588.391 -1108.62 339.838 -1364.92" stroke="#378437" stroke-opacity="0.06" stroke-width="1.05401"/>
<path d="M-97.9818 1126.72C-207.908 1130.2 -448.329 1057.66 -530.61 739.657C-633.461 342.15 -474.264 -117.508 -684.162 -101.211C-894.06 -84.9134 -1048.71 -107.448 -974.233 -266.804C-899.752 -426.16 -584.611 -592.505 -833.164 -848.809" stroke="#378437" stroke-opacity="0.06" stroke-width="1.05401"/>
<path d="M-66.6381 1112.9C-176.564 1116.39 -416.985 1043.85 -499.266 725.843C-602.117 328.335 -442.92 -131.323 -652.818 -115.026C-862.716 -98.7283 -1017.37 -121.263 -942.889 -280.619C-868.408 -439.975 -553.267 -606.32 -801.82 -862.623" stroke="#378437" stroke-opacity="0.06" stroke-width="1.05401"/>
<path d="M-29.0287 1096.32C-138.954 1099.81 -379.376 1027.27 -461.657 709.264C-564.508 311.756 -405.311 -147.901 -615.209 -131.604C-825.107 -115.307 -979.761 -137.842 -905.28 -297.198C-830.799 -456.553 -515.658 -622.899 -764.211 -879.202" stroke="#378437" stroke-opacity="0.06" stroke-width="1.05401"/>
<path d="M8.58456 1079.75C-101.341 1083.23 -341.763 1010.69 -424.044 692.686C-526.894 295.179 -367.697 -164.479 -577.596 -148.182C-787.494 -131.885 -942.148 -154.42 -867.667 -313.775C-793.186 -473.131 -478.045 -639.477 -726.598 -895.78" stroke="#378437" stroke-opacity="0.06" stroke-width="1.05401"/>
<path d="M46.1939 1063.17C-63.7318 1066.65 -304.153 994.114 -386.434 676.108C-489.285 278.6 -330.088 -181.057 -539.986 -164.76C-749.884 -148.463 -904.538 -170.998 -830.057 -330.353C-755.576 -489.709 -440.435 -656.055 -688.988 -912.358" stroke="#378437" stroke-opacity="0.06" stroke-width="1.05401"/>
<path d="M83.8053 1046.59C-26.1204 1050.07 -266.542 977.536 -348.823 659.53C-451.674 262.022 -292.477 -197.635 -502.375 -181.338C-712.273 -165.041 -866.927 -187.576 -792.446 -346.931C-717.965 -506.287 -402.824 -672.633 -651.377 -928.936" stroke="#378437" stroke-opacity="0.06" stroke-width="1.05401"/>
<path d="M121.417 1030.01C11.4909 1033.5 -228.931 960.958 -311.211 642.952C-414.062 245.444 -254.865 -214.213 -464.764 -197.916C-674.662 -181.619 -829.316 -204.154 -754.835 -363.51C-680.353 -522.865 -365.213 -689.211 -613.765 -945.514" stroke="#378437" stroke-opacity="0.06" stroke-width="1.05401"/>
<path d="M159.028 1013.43C49.1022 1016.92 -191.319 944.38 -273.6 626.374C-376.451 228.866 -217.254 -230.792 -427.152 -214.494C-637.05 -198.197 -791.704 -220.732 -717.223 -380.088C-642.742 -539.443 -327.601 -705.789 -576.154 -962.092" stroke="#378437" stroke-opacity="0.06" stroke-width="1.05401"/>
<path d="M196.639 996.856C86.7135 1000.34 -153.708 927.802 -235.989 609.796C-338.84 212.288 -179.643 -247.37 -389.541 -231.072C-599.439 -214.775 -754.093 -237.31 -679.612 -396.666C-605.131 -556.022 -289.99 -722.367 -538.543 -978.67" stroke="#378437" stroke-opacity="0.06" stroke-width="1.05401"/>
<path d="M234.251 980.278C124.325 983.761 -116.097 911.224 -198.378 593.218C-301.228 195.71 -142.031 -263.948 -351.93 -247.651C-561.828 -231.353 -716.482 -253.888 -642.001 -413.244C-567.52 -572.6 -252.379 -738.945 -500.932 -995.248" stroke="#378437" stroke-opacity="0.06" stroke-width="1.05401"/>
<path d="M271.862 963.7C161.936 967.183 -78.4854 894.646 -160.766 576.639C-263.617 179.132 -104.42 -280.526 -314.318 -264.229C-524.216 -247.931 -678.87 -270.466 -604.389 -429.822C-529.908 -589.178 -214.767 -755.523 -463.32 -1011.83" stroke="#378437" stroke-opacity="0.06" stroke-width="1.05401"/>
</g>
<defs>
<clipPath id="clip0_1_15205">
<rect width="683" height="1516.72" fill="white" transform="translate(-570.861 661) rotate(-90)"/>
</clipPath>
</defs>
</svg>
