<svg width="375" height="937" viewBox="0 0 375 937" fill="none" xmlns="http://www.w3.org/2000/svg">
<g clip-path="url(#clip0_1_14979)">
<path d="M297.874 1219.04C193.509 1222.35 -34.7505 1153.48 -112.869 851.562C-210.517 474.162 -59.3732 37.7567 -258.654 53.2296C-457.934 68.7024 -604.765 47.3074 -534.051 -103.987C-463.338 -255.282 -164.139 -413.213 -400.118 -656.551" stroke="white" stroke-opacity="0.06" stroke-width="1.00069"/>
<path d="M327.63 1205.93C223.265 1209.23 -4.99468 1140.37 -83.1133 838.446C-180.762 461.046 -29.6174 24.6405 -228.898 40.1134C-428.178 55.5862 -575.009 34.1912 -504.296 -117.103C-433.582 -268.398 -134.383 -426.329 -370.363 -669.667" stroke="white" stroke-opacity="0.06" stroke-width="1.00069"/>
<path d="M363.339 1190.19C258.974 1193.49 30.7143 1124.63 -47.4043 822.707C-145.053 445.307 6.09161 8.90123 -193.189 24.3741C-392.469 39.847 -539.3 18.452 -468.587 -132.843C-397.873 -284.137 -98.6738 -442.068 -334.654 -685.406" stroke="white" stroke-opacity="0.06" stroke-width="1.00069"/>
<path d="M399.048 1174.45C294.683 1177.75 66.4233 1108.89 -11.6953 806.967C-109.344 429.567 41.8006 -6.83852 -157.48 8.63436C-356.76 24.1072 -503.591 2.71223 -432.878 -148.582C-362.164 -299.877 -62.9648 -457.808 -298.945 -701.146" stroke="white" stroke-opacity="0.06" stroke-width="1.00069"/>
<path d="M434.757 1158.71C330.392 1162.01 102.132 1093.15 24.0137 791.227C-73.6346 413.827 77.5096 -22.5783 -121.771 -7.10539C-321.051 8.36749 -467.882 -13.0275 -397.169 -164.322C-326.455 -315.617 -27.2558 -473.548 -263.236 -716.886" stroke="white" stroke-opacity="0.06" stroke-width="1.00069"/>
<path d="M470.466 1142.97C366.101 1146.28 137.841 1077.41 59.7227 775.488C-37.9256 398.088 113.219 -38.3175 -86.0619 -22.8446C-285.342 -7.37177 -432.173 -28.7668 -361.46 -180.061C-290.746 -331.356 8.4532 -489.287 -227.527 -732.625" stroke="white" stroke-opacity="0.06" stroke-width="1.00069"/>
<path d="M506.175 1127.23C401.81 1130.54 173.55 1061.67 95.4316 759.749C-2.21659 382.349 148.928 -54.0568 -50.3529 -38.5839C-249.633 -23.111 -396.464 -44.506 -325.751 -195.801C-255.037 -347.095 44.1622 -505.026 -191.818 -748.364" stroke="white" stroke-opacity="0.06" stroke-width="1.00069"/>
<path d="M541.884 1111.49C437.519 1114.8 209.259 1045.93 131.141 744.009C33.4924 366.609 184.637 -69.7965 -14.644 -54.3236C-213.924 -38.8508 -360.755 -60.2458 -290.042 -211.54C-219.328 -362.835 79.8712 -520.766 -156.109 -764.104" stroke="white" stroke-opacity="0.06" stroke-width="1.00069"/>
<path d="M577.591 1095.75C473.226 1099.06 244.966 1030.19 166.848 728.269C69.1994 350.869 220.344 -85.5363 21.0631 -70.0634C-178.217 -54.5905 -325.048 -75.9855 -254.335 -227.28C-183.621 -378.575 115.578 -536.506 -120.402 -779.844" stroke="white" stroke-opacity="0.06" stroke-width="1.00069"/>
<path d="M613.3 1080.01C508.935 1083.32 280.675 1014.45 202.557 712.53C104.908 335.13 256.053 -101.276 56.7721 -85.8027C-142.508 -70.3298 -289.339 -91.7248 -218.626 -243.019C-147.912 -394.314 151.287 -552.245 -84.6926 -795.583" stroke="white" stroke-opacity="0.06" stroke-width="1.00069"/>
<path d="M649.009 1064.27C544.644 1067.58 316.384 998.71 238.266 696.791C140.617 319.391 291.762 -117.015 92.481 -101.542C-106.799 -86.069 -253.63 -107.464 -182.917 -258.759C-112.203 -410.053 186.996 -567.984 -48.9836 -811.322" stroke="white" stroke-opacity="0.06" stroke-width="1.00069"/>
<path d="M678.49 1051.93C574.125 1055.23 345.865 986.366 267.746 684.446C170.098 307.046 321.242 -129.36 121.962 -113.887C-77.319 -98.4138 -224.15 -119.809 -153.436 -271.103C-82.7228 -422.398 216.477 -580.329 -19.5032 -823.667" stroke="white" stroke-opacity="0.08" stroke-width="1.00069"/>
<path d="M708.245 1038.81C603.88 1042.12 375.621 973.25 297.502 671.33C199.854 293.93 350.998 -142.476 151.717 -127.003C-47.5631 -111.53 -194.394 -132.925 -123.68 -284.22C-52.9669 -435.514 246.232 -593.445 10.2527 -836.783" stroke="white" stroke-opacity="0.08" stroke-width="1.00069"/>
<path d="M743.954 1023.07C639.589 1026.38 411.33 957.51 333.211 655.59C235.563 278.19 386.707 -158.215 187.426 -142.743C-11.8541 -127.27 -158.685 -148.665 -87.9714 -299.959C-17.2579 -451.254 281.941 -609.185 45.9617 -852.523" stroke="white" stroke-opacity="0.08" stroke-width="1.00069"/>
<path d="M779.663 1007.33C675.298 1010.64 447.039 941.771 368.92 639.851C271.272 262.451 422.416 -173.955 223.135 -158.482C23.8549 -143.009 -122.976 -164.404 -52.2624 -315.699C18.451 -466.993 317.65 -624.924 81.6707 -868.262" stroke="white" stroke-opacity="0.08" stroke-width="1.00069"/>
<path d="M815.372 991.592C711.007 994.898 482.748 926.031 404.629 624.111C306.981 246.711 458.125 -189.694 258.844 -174.222C59.5638 -158.749 -87.2669 -180.144 -16.5534 -331.438C54.16 -482.733 353.359 -640.664 117.38 -884.002" stroke="white" stroke-opacity="0.08" stroke-width="1.00069"/>
<path d="M851.081 975.853C746.716 979.159 518.456 910.292 440.338 608.372C342.69 230.972 493.834 -205.434 294.553 -189.961C95.2728 -174.488 -51.5579 -195.883 19.1555 -347.178C89.869 -498.472 389.068 -656.403 153.089 -899.741" stroke="white" stroke-opacity="0.08" stroke-width="1.00069"/>
<path d="M886.79 960.113C782.425 963.419 554.165 894.552 476.047 592.632C378.399 215.232 529.543 -221.173 330.262 -205.701C130.982 -190.228 -15.8489 -211.623 54.8645 -362.917C125.578 -514.212 424.777 -672.143 188.798 -915.481" stroke="white" stroke-opacity="0.08" stroke-width="1.00069"/>
<path d="M922.499 944.374C818.134 947.68 589.874 878.813 511.756 576.893C414.108 199.493 565.252 -236.913 365.971 -221.44C166.691 -205.967 19.86 -227.362 90.5735 -378.657C161.287 -529.951 460.486 -687.882 224.507 -931.22" stroke="white" stroke-opacity="0.08" stroke-width="1.00069"/>
<path d="M958.206 928.634C853.841 931.94 625.581 863.073 547.463 561.153C449.815 183.753 600.959 -252.652 401.678 -237.18C202.398 -221.707 55.5671 -243.102 126.281 -394.396C196.994 -545.691 496.193 -703.622 260.214 -946.96" stroke="white" stroke-opacity="0.08" stroke-width="1.00069"/>
<path d="M993.915 912.895C889.55 916.201 661.29 847.334 583.172 545.414C485.524 168.014 636.668 -268.392 437.387 -252.919C238.107 -237.446 91.2761 -258.841 161.99 -410.136C232.703 -561.43 531.902 -719.361 295.923 -962.699" stroke="white" stroke-opacity="0.08" stroke-width="1.00069"/>
<path d="M1029.62 897.155C925.259 900.461 696.999 831.594 618.881 529.674C521.233 152.274 672.377 -284.131 473.096 -268.659C273.816 -253.186 126.985 -274.581 197.699 -425.875C268.412 -577.17 567.611 -735.101 331.632 -978.439" stroke="white" stroke-opacity="0.08" stroke-width="1.00069"/>
<path d="M-84.0397 1387.16C-188.405 1390.47 -416.665 1321.6 -494.783 1019.68C-592.431 642.279 -441.287 205.873 -640.568 221.346C-839.848 236.819 -986.679 215.424 -915.966 64.129C-845.252 -87.1656 -546.053 -245.097 -782.032 -488.435" stroke="white" stroke-opacity="0.08" stroke-width="1.00069"/>
<path d="M-54.2839 1374.04C-158.649 1377.35 -386.909 1308.48 -465.027 1006.56C-562.676 629.162 -411.531 192.757 -610.812 208.23C-810.092 223.702 -956.923 202.307 -886.21 51.0128C-815.496 -100.282 -516.297 -258.213 -752.277 -501.551" stroke="white" stroke-opacity="0.08" stroke-width="1.00069"/>
<path d="M-18.5749 1358.3C-122.94 1361.61 -351.2 1292.74 -429.318 990.822C-526.967 613.423 -375.822 177.017 -575.103 192.49C-774.383 207.963 -921.214 186.568 -850.501 35.2731C-779.787 -116.022 -480.588 -273.953 -716.568 -517.291" stroke="white" stroke-opacity="0.08" stroke-width="1.00069"/>
<path d="M17.1341 1342.56C-87.231 1345.87 -315.491 1277 -393.609 975.083C-491.258 597.683 -340.113 161.277 -539.394 176.75C-738.674 192.223 -885.505 170.828 -814.792 19.5333C-744.078 -131.761 -444.879 -289.692 -680.859 -533.03" stroke="white" stroke-opacity="0.08" stroke-width="1.00069"/>
<path d="M52.8431 1326.82C-51.522 1330.13 -279.782 1261.26 -357.9 959.343C-455.549 581.944 -304.404 145.538 -503.685 161.011C-702.965 176.484 -849.796 155.089 -779.083 3.79406C-708.369 -147.501 -409.17 -305.432 -645.15 -548.77" stroke="white" stroke-opacity="0.08" stroke-width="1.00069"/>
<path d="M88.5521 1311.09C-15.813 1314.39 -244.073 1245.52 -322.191 943.604C-419.84 566.204 -268.695 129.799 -467.976 145.272C-667.256 160.744 -814.087 139.349 -743.374 -11.9452C-672.66 -163.24 -373.461 -321.171 -609.441 -564.509" stroke="white" stroke-opacity="0.08" stroke-width="1.00069"/>
<path d="M124.261 1295.35C19.896 1298.65 -208.364 1229.78 -286.482 927.864C-384.131 550.465 -232.987 114.059 -432.267 129.532C-631.547 145.005 -778.378 123.61 -707.665 -27.6849C-636.951 -178.98 -337.752 -336.911 -573.732 -580.249" stroke="white" stroke-opacity="0.08" stroke-width="1.00069"/>
<path d="M159.97 1279.61C55.605 1282.91 -172.655 1214.04 -250.773 912.125C-348.422 534.725 -197.278 98.3197 -396.558 113.793C-595.838 129.265 -742.669 107.87 -671.956 -43.4242C-601.242 -194.719 -302.043 -352.65 -538.023 -595.988" stroke="white" stroke-opacity="0.08" stroke-width="1.00069"/>
<path d="M195.677 1263.87C91.312 1267.17 -136.948 1198.31 -215.066 896.385C-312.715 518.986 -161.57 82.5799 -360.851 98.0528C-560.131 113.526 -706.962 92.1307 -636.249 -59.164C-565.535 -210.459 -266.336 -368.39 -502.316 -611.728" stroke="white" stroke-opacity="0.08" stroke-width="1.00069"/>
<path d="M231.386 1248.13C127.021 1251.43 -101.239 1182.57 -179.357 880.646C-277.006 503.246 -125.862 66.8407 -325.142 82.3136C-524.422 97.7864 -671.253 76.3914 -600.54 -74.9032C-529.826 -226.198 -230.627 -384.129 -466.607 -627.467" stroke="white" stroke-opacity="0.08" stroke-width="1.00069"/>
<path d="M267.095 1232.39C162.73 1235.69 -65.5298 1166.83 -143.648 864.906C-241.297 487.507 -90.1525 51.1009 -289.433 66.5738C-488.713 82.0467 -635.544 60.6517 -564.831 -90.643C-494.117 -241.938 -194.918 -399.869 -430.898 -643.207" stroke="white" stroke-opacity="0.08" stroke-width="1.00069"/>
</g>
<defs>
<clipPath id="clip0_1_14979">
<rect width="953" height="1440" fill="white" transform="translate(-533 945) rotate(-90)"/>
</clipPath>
</defs>
</svg>
