<svg width="1440" height="901" viewBox="0 0 1440 901" fill="none" xmlns="http://www.w3.org/2000/svg">
<g clip-path="url(#clip0_1_8284)">
<path d="M830.874 1201.04C726.509 1204.35 498.249 1135.48 420.131 833.562C322.483 456.162 473.627 19.7567 274.346 35.2296C75.0658 50.7024 -71.765 29.3074 -1.0515 -121.987C69.662 -273.282 368.861 -431.213 132.882 -674.551" stroke="white" stroke-opacity="0.06" stroke-width="1.00069"/>
<path d="M860.63 1187.93C756.265 1191.23 528.005 1122.37 449.887 820.446C352.238 443.046 503.383 6.64049 304.102 22.1134C104.822 37.5862 -42.0091 16.1912 28.7044 -135.103C99.4178 -286.398 398.617 -444.329 162.637 -687.667" stroke="white" stroke-opacity="0.06" stroke-width="1.00069"/>
<path d="M896.339 1172.19C791.974 1175.49 563.714 1106.63 485.596 804.707C387.947 427.307 539.092 -9.09877 339.811 6.3741C140.531 21.847 -6.30012 0.451974 64.4133 -150.843C135.127 -302.137 434.326 -460.068 198.346 -703.406" stroke="white" stroke-opacity="0.06" stroke-width="1.00069"/>
<path d="M932.048 1156.45C827.683 1159.75 599.423 1090.89 521.305 788.967C423.656 411.567 574.801 -24.8385 375.52 -9.36564C176.24 6.10723 29.4089 -15.2878 100.122 -166.582C170.836 -317.877 470.035 -475.808 234.055 -719.146" stroke="white" stroke-opacity="0.06" stroke-width="1.00069"/>
<path d="M967.757 1140.71C863.392 1144.01 635.132 1075.15 557.014 773.227C459.365 395.827 610.51 -40.5783 411.229 -25.1054C211.949 -9.63251 65.1178 -31.0275 135.831 -182.322C206.545 -333.617 505.744 -491.548 269.764 -734.886" stroke="white" stroke-opacity="0.06" stroke-width="1.00069"/>
<path d="M1003.47 1124.97C899.101 1128.28 670.841 1059.41 592.723 757.488C495.074 380.088 646.219 -56.3175 446.938 -40.8446C247.658 -25.3718 100.827 -46.7668 171.54 -198.061C242.254 -349.356 541.453 -507.287 305.473 -750.625" stroke="white" stroke-opacity="0.06" stroke-width="1.00069"/>
<path d="M1039.18 1109.23C934.81 1112.54 706.55 1043.67 628.432 741.749C530.783 364.349 681.928 -72.0568 482.647 -56.5839C283.367 -41.111 136.536 -62.506 207.249 -213.801C277.963 -365.095 577.162 -523.026 341.182 -766.364" stroke="white" stroke-opacity="0.06" stroke-width="1.00069"/>
<path d="M1074.88 1093.49C970.519 1096.8 742.259 1027.93 664.141 726.009C566.492 348.609 717.637 -87.7965 518.356 -72.3236C319.076 -56.8508 172.245 -78.2458 242.958 -229.54C313.672 -380.835 612.871 -538.766 376.891 -782.104" stroke="white" stroke-opacity="0.06" stroke-width="1.00069"/>
<path d="M1110.59 1077.75C1006.23 1081.06 777.966 1012.19 699.848 710.269C602.199 332.869 753.344 -103.536 554.063 -88.0634C354.783 -72.5905 207.952 -93.9855 278.665 -245.28C349.379 -396.575 648.578 -554.506 412.598 -797.844" stroke="white" stroke-opacity="0.06" stroke-width="1.00069"/>
<path d="M1146.3 1062.01C1041.94 1065.32 813.675 996.45 735.557 694.53C637.908 317.13 789.053 -119.276 589.772 -103.803C390.492 -88.3298 243.661 -109.725 314.374 -261.019C385.088 -412.314 684.287 -570.245 448.307 -813.583" stroke="white" stroke-opacity="0.06" stroke-width="1.00069"/>
<path d="M1182.01 1046.27C1077.64 1049.58 849.384 980.71 771.266 678.791C673.617 301.391 824.762 -135.015 625.481 -119.542C426.201 -104.069 279.37 -125.464 350.083 -276.759C420.797 -428.053 719.996 -585.984 484.016 -829.322" stroke="white" stroke-opacity="0.06" stroke-width="1.00069"/>
<path d="M1211.49 1033.93C1107.12 1037.23 878.865 968.366 800.746 666.446C703.098 289.046 854.242 -147.36 654.962 -131.887C455.681 -116.414 308.85 -137.809 379.564 -289.103C450.277 -440.398 749.477 -598.329 513.497 -841.667" stroke="white" stroke-opacity="0.08" stroke-width="1.00069"/>
<path d="M1241.25 1020.81C1136.88 1024.12 908.621 955.25 830.502 653.33C732.854 275.93 883.998 -160.476 684.717 -145.003C485.437 -129.53 338.606 -150.925 409.32 -302.22C480.033 -453.514 779.232 -611.445 543.253 -854.783" stroke="white" stroke-opacity="0.08" stroke-width="1.00069"/>
<path d="M1276.95 1005.07C1172.59 1008.38 944.33 939.51 866.211 637.59C768.563 260.19 919.707 -176.215 720.426 -160.743C521.146 -145.27 374.315 -166.665 445.029 -317.959C515.742 -469.254 814.941 -627.185 578.962 -870.523" stroke="white" stroke-opacity="0.08" stroke-width="1.00069"/>
<path d="M1312.66 989.332C1208.3 992.638 980.039 923.771 901.92 621.851C804.272 244.451 955.416 -191.955 756.135 -176.482C556.855 -161.009 410.024 -182.404 480.738 -333.699C551.451 -484.993 850.65 -642.924 614.671 -886.262" stroke="white" stroke-opacity="0.08" stroke-width="1.00069"/>
<path d="M1348.37 973.592C1244.01 976.898 1015.75 908.031 937.629 606.111C839.981 228.711 991.125 -207.694 791.844 -192.222C592.564 -176.749 445.733 -198.144 516.447 -349.438C587.16 -500.733 886.359 -658.664 650.38 -902.002" stroke="white" stroke-opacity="0.08" stroke-width="1.00069"/>
<path d="M1384.08 957.853C1279.72 961.159 1051.46 892.292 973.338 590.372C875.69 212.972 1026.83 -223.434 827.553 -207.961C628.273 -192.488 481.442 -213.883 552.156 -365.178C622.869 -516.472 922.068 -674.403 686.089 -917.741" stroke="white" stroke-opacity="0.08" stroke-width="1.00069"/>
<path d="M1419.79 942.113C1315.43 945.419 1087.17 876.552 1009.05 574.632C911.399 197.232 1062.54 -239.173 863.262 -223.701C663.982 -208.228 517.151 -229.623 587.865 -380.917C658.578 -532.212 957.777 -690.143 721.798 -933.481" stroke="white" stroke-opacity="0.08" stroke-width="1.00069"/>
<path d="M1455.5 926.374C1351.13 929.68 1122.87 860.813 1044.76 558.893C947.108 181.493 1098.25 -254.913 898.971 -239.44C699.691 -223.967 552.86 -245.362 623.574 -396.657C694.287 -547.951 993.486 -705.882 757.507 -949.22" stroke="white" stroke-opacity="0.08" stroke-width="1.00069"/>
<path d="M1491.21 910.634C1386.84 913.94 1158.58 845.073 1080.46 543.153C982.815 165.753 1133.96 -270.652 934.678 -255.18C735.398 -239.707 588.567 -261.102 659.281 -412.396C729.994 -563.691 1029.19 -721.622 793.214 -964.96" stroke="white" stroke-opacity="0.08" stroke-width="1.00069"/>
<path d="M1526.92 894.895C1422.55 898.201 1194.29 829.334 1116.17 527.414C1018.52 150.014 1169.67 -286.392 970.387 -270.919C771.107 -255.446 624.276 -276.841 694.99 -428.136C765.703 -579.43 1064.9 -737.361 828.923 -980.699" stroke="white" stroke-opacity="0.08" stroke-width="1.00069"/>
<path d="M1562.62 879.155C1458.26 882.461 1230 813.594 1151.88 511.674C1054.23 134.274 1205.38 -302.131 1006.1 -286.659C806.816 -271.186 659.985 -292.581 730.699 -443.875C801.412 -595.17 1100.61 -753.101 864.632 -996.439" stroke="white" stroke-opacity="0.08" stroke-width="1.00069"/>
<path d="M448.96 1369.16C344.595 1372.47 116.335 1303.6 38.2168 1001.68C-59.4314 624.279 91.7127 187.873 -107.568 203.346C-306.848 218.819 -453.679 197.424 -382.966 46.129C-312.252 -105.166 -13.0527 -263.097 -249.032 -506.435" stroke="white" stroke-opacity="0.08" stroke-width="1.00069"/>
<path d="M478.716 1356.04C374.351 1359.35 146.091 1290.48 67.9727 988.562C-29.6756 611.162 121.469 174.757 -77.8119 190.23C-277.092 205.702 -423.923 184.307 -353.21 33.0128C-282.496 -118.282 16.7032 -276.213 -219.277 -519.551" stroke="white" stroke-opacity="0.08" stroke-width="1.00069"/>
<path d="M514.425 1340.3C410.06 1343.61 181.8 1274.74 103.682 972.822C6.03341 595.423 157.178 159.017 -42.1029 174.49C-241.383 189.963 -388.214 168.568 -317.501 17.2731C-246.787 -134.022 52.4122 -291.953 -183.568 -535.291" stroke="white" stroke-opacity="0.08" stroke-width="1.00069"/>
<path d="M550.134 1324.56C445.769 1327.87 217.509 1259 139.391 957.083C41.7424 579.683 192.887 143.277 -6.39395 158.75C-205.674 174.223 -352.505 152.828 -281.792 1.53331C-211.078 -149.761 88.1212 -307.692 -147.859 -551.03" stroke="white" stroke-opacity="0.08" stroke-width="1.00069"/>
<path d="M585.843 1308.82C481.478 1312.13 253.218 1243.26 175.1 941.343C77.4514 563.944 228.596 127.538 29.315 143.011C-169.965 158.484 -316.796 137.089 -246.083 -14.2059C-175.369 -165.501 123.83 -323.432 -112.15 -566.77" stroke="white" stroke-opacity="0.08" stroke-width="1.00069"/>
<path d="M621.552 1293.09C517.187 1296.39 288.927 1227.52 210.809 925.604C113.16 548.204 264.305 111.799 65.024 127.272C-134.256 142.744 -281.087 121.349 -210.374 -29.9452C-139.66 -181.24 159.539 -339.171 -76.4407 -582.509" stroke="white" stroke-opacity="0.08" stroke-width="1.00069"/>
<path d="M657.261 1277.35C552.896 1280.65 324.636 1211.78 246.518 909.864C148.869 532.465 300.013 96.0589 100.733 111.532C-98.5475 127.005 -245.378 105.61 -174.665 -45.6849C-103.951 -196.98 195.248 -354.911 -40.7317 -598.249" stroke="white" stroke-opacity="0.08" stroke-width="1.00069"/>
<path d="M692.97 1261.61C588.605 1264.91 360.345 1196.04 282.227 894.125C184.578 516.725 335.722 80.3197 136.442 95.7926C-62.8385 111.265 -209.669 89.8704 -138.956 -61.4242C-68.2423 -212.719 230.957 -370.65 -5.0227 -613.988" stroke="white" stroke-opacity="0.08" stroke-width="1.00069"/>
<path d="M728.677 1245.87C624.312 1249.17 396.052 1180.31 317.934 878.385C220.285 500.986 371.43 64.5799 172.149 80.0528C-27.1315 95.5257 -173.962 74.1307 -103.249 -77.164C-32.5353 -228.459 266.664 -386.39 30.6843 -629.728" stroke="white" stroke-opacity="0.08" stroke-width="1.00069"/>
<path d="M764.386 1230.13C660.021 1233.43 431.761 1164.57 353.643 862.646C255.994 485.246 407.138 48.8407 207.858 64.3136C8.57752 79.7864 -138.253 58.3914 -67.5398 -92.9032C3.17369 -244.198 302.373 -402.129 66.3933 -645.467" stroke="white" stroke-opacity="0.08" stroke-width="1.00069"/>
<path d="M800.095 1214.39C695.73 1217.69 467.47 1148.83 389.352 846.906C291.703 469.507 442.847 33.1009 243.567 48.5738C44.2865 64.0467 -102.544 42.6517 -31.8308 -108.643C38.8827 -259.938 338.082 -417.869 102.102 -661.207" stroke="white" stroke-opacity="0.08" stroke-width="1.00069"/>
</g>
<defs>
<clipPath id="clip0_1_8284">
<rect width="953" height="1440" fill="white" transform="translate(0 927) rotate(-90)"/>
</clipPath>
</defs>
</svg>
