<svg width="171" height="367" viewBox="0 0 171 367" fill="none" xmlns="http://www.w3.org/2000/svg">
<path d="M183.897 366.66C159.863 366.66 136.065 361.926 113.86 352.729C91.6555 343.531 71.4799 330.05 54.4852 313.056C37.4906 296.061 24.0097 275.885 14.8122 253.681C5.6148 231.476 0.880942 207.678 0.880943 183.643C0.880944 159.609 5.6148 135.811 14.8123 113.606C24.0097 91.4015 37.4906 71.2259 54.4853 54.2312C71.4799 37.2366 91.6555 23.7557 113.86 14.5582C136.065 5.3608 159.863 0.626942 183.898 0.626945L183.898 49.7102C166.309 49.7102 148.893 53.1745 132.643 59.9053C116.394 66.6361 101.629 76.5015 89.1924 88.9384C76.7555 101.375 66.8901 116.14 60.1593 132.389C53.4285 148.639 49.9642 166.055 49.9642 183.643C49.9642 201.232 53.4285 218.648 60.1593 234.898C66.8901 251.147 76.7555 265.912 89.1924 278.349C101.629 290.785 116.394 300.651 132.643 307.382C148.893 314.112 166.309 317.577 183.897 317.577L183.897 366.66Z" fill="#E0F1E0"/>
</svg>
