<svg width="60" height="60" viewBox="0 0 60 60" fill="none" xmlns="http://www.w3.org/2000/svg">
<g id="Group 33107">
<circle id="Ellipse 1" cx="30" cy="30" r="30" fill="#1D6362"/>
<path id="c" d="M39.2113 37.0591L45.7137 40.3445C44.1289 42.4047 42.1129 44.0529 39.6657 45.289C37.2419 46.5251 34.6083 47.1431 31.7649 47.1431C28.5486 47.1431 25.612 46.3733 22.9551 44.8336C20.3215 43.2939 18.2123 41.2337 16.6274 38.653C15.0659 36.0507 14.2852 33.1773 14.2852 30.0328C14.2852 27.6473 14.7396 25.4245 15.6486 23.3643C16.5575 21.2825 17.8044 19.4608 19.3892 17.8994C20.9974 16.3164 22.8619 15.0802 24.9828 14.1911C27.1036 13.302 29.3643 12.8574 31.7649 12.8574C34.6083 12.8574 37.2419 13.4755 39.6657 14.7116C42.1129 15.9477 44.1289 17.6067 45.7137 19.6885L39.2113 22.974C38.2324 21.8897 37.0904 21.0656 35.7852 20.5018C34.4801 19.9162 33.14 19.6235 31.7649 19.6235C29.8538 19.6235 28.1175 20.1114 26.5559 21.0873C25.0177 22.0415 23.7941 23.3101 22.8852 24.8932C21.9995 26.4546 21.5567 28.1678 21.5567 30.0328C21.5567 31.8761 22.0112 33.5893 22.9201 35.1724C23.8291 36.7338 25.0527 37.9916 26.5909 38.9458C28.1524 39.9 29.8771 40.3771 31.7649 40.3771C33.2099 40.3771 34.585 40.0735 35.8901 39.4663C37.1953 38.859 38.3023 38.0567 39.2113 37.0591Z" fill="#F9F9FB"/>
</g>
</svg>
