<svg width="44" height="45" viewBox="0 0 44 45" fill="none" xmlns="http://www.w3.org/2000/svg">
<path d="M14.3081 24.0391H11.2312C9.53188 24.0391 8.1543 25.4166 8.1543 27.116V39.4237C8.1543 41.123 9.53188 42.5006 11.2312 42.5006H14.3081C16.0075 42.5006 17.3851 41.123 17.3851 39.4237V27.116C17.3851 25.4166 16.0075 24.0391 14.3081 24.0391Z" stroke="#1D6362" stroke-width="4" stroke-linecap="round" stroke-linejoin="round"/>
<path d="M32.7691 24.0391H29.6922C27.9928 24.0391 26.6152 25.4166 26.6152 27.116V39.4237C26.6152 41.123 27.9928 42.5006 29.6922 42.5006H32.7691C34.4684 42.5006 35.846 41.123 35.846 39.4237V27.116C35.846 25.4166 34.4684 24.0391 32.7691 24.0391Z" stroke="#1D6362" stroke-width="4" stroke-linecap="round" stroke-linejoin="round"/>
<path d="M2 30.1923V22.5C2 17.1957 4.10714 12.1086 7.85786 8.35786C11.6086 4.60714 16.6957 2.5 22 2.5C27.3043 2.5 32.3914 4.60714 36.1421 8.35786C39.8929 12.1086 42 17.1957 42 22.5V30.1923" stroke="#1D6362" stroke-width="4" stroke-linecap="round" stroke-linejoin="round"/>
</svg>
