<svg width="40" height="40" viewBox="0 0 40 40" fill="none" xmlns="http://www.w3.org/2000/svg">
<g id="Icon">
<circle id="Ellipse 239" cx="20" cy="20" r="20" fill="white"/>
<g id="Group">
<path id="Vector" d="M15.3837 20.9229H13.5376C12.518 20.9229 11.6914 21.7494 11.6914 22.769V30.1536C11.6914 31.1732 12.518 31.9998 13.5376 31.9998H15.3837C16.4033 31.9998 17.2299 31.1732 17.2299 30.1536V22.769C17.2299 21.7494 16.4033 20.9229 15.3837 20.9229Z" stroke="#1D6362" stroke-width="2" stroke-linecap="round" stroke-linejoin="round"/>
<path id="Vector_2" d="M26.4618 20.9229H24.6157C23.5961 20.9229 22.7695 21.7494 22.7695 22.769V30.1536C22.7695 31.1732 23.5961 31.9998 24.6157 31.9998H26.4618C27.4814 31.9998 28.308 31.1732 28.308 30.1536V22.769C28.308 21.7494 27.4814 20.9229 26.4618 20.9229Z" stroke="#1D6362" stroke-width="2" stroke-linecap="round" stroke-linejoin="round"/>
<path id="Vector_3" d="M8 24.6154V20C8 16.8174 9.26428 13.7652 11.5147 11.5147C13.7652 9.26428 16.8174 8 20 8C23.1826 8 26.2348 9.26428 28.4853 11.5147C30.7357 13.7652 32 16.8174 32 20V24.6154" stroke="#1D6362" stroke-width="2" stroke-linecap="round" stroke-linejoin="round"/>
</g>
</g>
</svg>
