<svg width="120" height="57" viewBox="0 0 120 57" fill="none" xmlns="http://www.w3.org/2000/svg">
<path d="M58.4099 30.8443L62.3326 32.8765C61.5124 33.9467 60.4842 34.8063 59.2479 35.4553C58.0117 36.1042 56.6625 36.4287 55.2004 36.4287C53.56 36.4287 52.0622 36.0245 50.7071 35.2162C49.3639 34.4078 48.2881 33.3262 47.4798 31.9714C46.6834 30.6052 46.2852 29.0966 46.2852 27.4458C46.2852 26.1934 46.517 25.0264 46.9805 23.9448C47.4441 22.8519 48.0801 21.8955 48.8884 21.0758C49.7086 20.2446 50.6596 19.5957 51.7413 19.1289C52.823 18.6621 53.976 18.4287 55.2004 18.4287C56.6625 18.4287 58.0117 18.7532 59.2479 19.4021C60.4842 20.0511 61.5124 20.9221 62.3326 22.015L58.4099 24.0302C57.9938 23.5748 57.5005 23.2219 56.93 22.9714C56.3713 22.7209 55.7947 22.5957 55.2004 22.5957C54.3445 22.5957 53.5719 22.8234 52.8824 23.2788C52.193 23.7228 51.6462 24.3149 51.242 25.0549C50.8379 25.7835 50.6358 26.5805 50.6358 27.4458C50.6358 28.2997 50.8379 29.0966 51.242 29.8367C51.6462 30.5653 52.193 31.1517 52.8824 31.5957C53.5719 32.0397 54.3445 32.2617 55.2004 32.2617C55.8185 32.2617 56.4069 32.1365 56.9656 31.886C57.5243 31.6242 58.0057 31.2769 58.4099 30.8443Z" fill="#1D1E25"/>
<path d="M72.8219 36.4287C71.1815 36.4287 69.6838 36.0245 68.3286 35.2162C66.9854 34.4078 65.9096 33.3262 65.1013 31.9714C64.3049 30.6052 63.9067 29.0966 63.9067 27.4458C63.9067 26.1934 64.1385 25.0264 64.6021 23.9448C65.0657 22.8519 65.7016 21.8955 66.5099 21.0758C67.3301 20.2446 68.2811 19.5957 69.3628 19.1289C70.4445 18.6621 71.5976 18.4287 72.8219 18.4287C74.4623 18.4287 75.9542 18.8329 77.2974 19.6412C78.6525 20.4496 79.7283 21.5369 80.5247 22.9031C81.333 24.2693 81.7372 25.7835 81.7372 27.4458C81.7372 28.6868 81.5054 29.8481 81.0418 30.9297C80.5782 32.0113 79.9363 32.9676 79.1161 33.7987C78.3078 34.6185 77.3628 35.2617 76.281 35.7285C75.2112 36.1953 74.0582 36.4287 72.8219 36.4287ZM72.8219 32.2617C73.6897 32.2617 74.4683 32.0397 75.1577 31.5957C75.8472 31.1517 76.388 30.5653 76.7803 29.8367C77.1845 29.108 77.3865 28.3111 77.3865 27.4458C77.3865 26.5577 77.1785 25.7494 76.7625 25.0207C76.3583 24.2807 75.8056 23.6944 75.1042 23.2617C74.4148 22.8177 73.654 22.5957 72.8219 22.5957C71.9661 22.5957 71.1934 22.8177 70.504 23.2617C69.8145 23.7058 69.2677 24.2978 68.8636 25.0378C68.4594 25.7779 68.2573 26.5805 68.2573 27.4458C68.2573 28.3452 68.4653 29.1593 68.8814 29.8879C69.2974 30.6166 69.8502 31.1972 70.5396 31.6298C71.241 32.0511 72.0017 32.2617 72.8219 32.2617Z" fill="#1D1E25"/>
<path d="M95.638 30.8443L99.5607 32.8765C98.7405 33.9467 97.7123 34.8063 96.476 35.4553C95.2398 36.1042 93.8906 36.4287 92.4285 36.4287C90.7881 36.4287 89.2903 36.0245 87.9352 35.2162C86.592 34.4078 85.5162 33.3262 84.7079 31.9714C83.9115 30.6052 83.5133 29.0966 83.5133 27.4458C83.5133 26.1934 83.7451 25.0264 84.2086 23.9448C84.6722 22.8519 85.3082 21.8955 86.1165 21.0758C86.9367 20.2446 87.8877 19.5957 88.9694 19.1289C90.0511 18.6621 91.2041 18.4287 92.4285 18.4287C93.8906 18.4287 95.2398 18.7532 96.476 19.4021C97.7123 20.0511 98.7405 20.9221 99.5607 22.015L95.638 24.0302C95.2219 23.5748 94.7286 23.2219 94.1581 22.9714C93.5994 22.7209 93.0228 22.5957 92.4285 22.5957C91.5726 22.5957 90.8 22.8234 90.1105 23.2788C89.4211 23.7228 88.8743 24.3149 88.4701 25.0549C88.066 25.7835 87.8639 26.5805 87.8639 27.4458C87.8639 28.2997 88.066 29.0966 88.4701 29.8367C88.8743 30.5653 89.4211 31.1517 90.1105 31.5957C90.8 32.0397 91.5726 32.2617 92.4285 32.2617C93.0466 32.2617 93.635 32.1365 94.1937 31.886C94.7524 31.6242 95.2338 31.2769 95.638 30.8443Z" fill="#1D1E25"/>
<path d="M115.649 18.9069H119.999V35.9847H115.649L115.453 33.867C114.965 34.6299 114.317 35.2503 113.509 35.7285C112.713 36.1953 111.768 36.4287 110.674 36.4287C109.355 36.4287 108.118 36.1896 106.965 35.7114C105.812 35.2333 104.796 34.5729 103.916 33.7304C103.049 32.8879 102.365 31.9145 101.866 30.8101C101.378 29.7058 101.135 28.5217 101.135 27.2579C101.135 26.0397 101.367 24.8955 101.83 23.8253C102.306 22.7551 102.965 21.8158 103.809 21.0075C104.653 20.1991 105.628 19.5672 106.734 19.1118C107.839 18.6564 109.028 18.4287 110.3 18.4287C111.476 18.4287 112.528 18.6792 113.456 19.1801C114.395 19.6811 115.191 20.3187 115.845 21.0928L115.649 18.9069ZM110.567 32.4154C111.494 32.4154 112.314 32.1934 113.028 31.7494C113.741 31.3054 114.3 30.7076 114.704 29.9562C115.108 29.1934 115.31 28.3566 115.31 27.4458C115.31 26.5236 115.108 25.6868 114.704 24.9354C114.3 24.1725 113.735 23.5691 113.01 23.1251C112.297 22.6811 111.482 22.4591 110.567 22.4591C109.652 22.4591 108.814 22.6868 108.053 23.1422C107.304 23.5862 106.704 24.1839 106.252 24.9354C105.812 25.6868 105.592 26.5236 105.592 27.4458C105.592 28.368 105.818 29.2048 106.27 29.9562C106.722 30.7076 107.322 31.3054 108.071 31.7494C108.832 32.1934 109.664 32.4154 110.567 32.4154Z" fill="#1D1E25"/>
<circle cx="18" cy="26.1426" r="18" fill="#1D6362"/>
<path d="M23.5279 30.3775L27.4294 32.3487C26.4785 33.5848 25.2689 34.5737 23.8006 35.3154C22.3463 36.057 20.7661 36.4279 19.0601 36.4279C17.1303 36.4279 15.3684 35.966 13.7742 35.0421C12.1941 34.1183 10.9285 32.8822 9.97764 31.3338C9.04072 29.7724 8.57227 28.0484 8.57227 26.1617C8.57227 24.7304 8.84495 23.3967 9.39032 22.1606C9.93569 20.9115 10.6838 19.8185 11.6347 18.8817C12.5996 17.9318 13.7183 17.1901 14.9908 16.6567C16.2634 16.1232 17.6198 15.8564 19.0601 15.8564C20.7661 15.8564 22.3463 16.2273 23.8006 16.9689C25.2689 17.7106 26.4785 18.706 27.4294 19.9551L23.5279 21.9264C22.9406 21.2758 22.2554 20.7814 21.4723 20.4431C20.6892 20.0917 19.8852 19.9161 19.0601 19.9161C17.9134 19.9161 16.8716 20.2088 15.9347 20.7944C15.0118 21.3669 14.2777 22.1281 13.7323 23.0779C13.2009 24.0148 12.9352 25.0427 12.9352 26.1617C12.9352 27.2677 13.2079 28.2956 13.7533 29.2454C14.2986 30.1823 15.0328 30.937 15.9557 31.5095C16.8926 32.082 17.9274 32.3682 19.0601 32.3682C19.9271 32.3682 20.7521 32.1861 21.5352 31.8217C22.3183 31.4574 22.9826 30.976 23.5279 30.3775Z" fill="white"/>
</svg>
