<svg width="134" height="22" viewBox="0 0 134 22" fill="none" xmlns="http://www.w3.org/2000/svg">
<path d="M8.11163 4.29509H9.92331V1.13974C9.61075 1.09674 8.53581 1 7.28393 1C4.67183 1 2.88248 2.643 2.88248 5.66274V8.44186H0V11.9693H2.88248V20.845H6.41654V11.9701H9.18243L9.6215 8.44269H6.41571V6.01251C6.41654 4.99297 6.69106 4.29509 8.11163 4.29509Z" fill="#1D6362"/>
<path d="M71.9609 4.11613C71.1428 4.475 70.2711 4.71288 69.3622 4.82838C70.2972 4.27013 71.0108 3.39287 71.3463 2.3355C70.4746 2.85525 69.5121 3.22238 68.4863 3.42725C67.6586 2.54588 66.4788 2 65.1918 2C62.6948 2 60.6846 4.02675 60.6846 6.51137C60.6846 6.86888 60.7148 7.21263 60.7891 7.53988C57.0394 7.357 53.7216 5.55988 51.4927 2.82225C51.1036 3.49738 50.8753 4.27012 50.8753 5.102C50.8753 6.664 51.6797 8.04862 52.8787 8.85025C52.1541 8.8365 51.4432 8.62613 50.8409 8.29475C50.8409 8.3085 50.8409 8.32638 50.8409 8.34425C50.8409 10.536 52.4043 12.3565 54.4544 12.7759C54.0873 12.8763 53.6872 12.9244 53.2719 12.9244C52.9832 12.9244 52.6917 12.9079 52.4181 12.8474C53.0024 14.6335 54.6607 15.9466 56.6324 15.9893C55.0979 17.1896 53.1496 17.9129 51.0403 17.9129C50.6704 17.9129 50.3157 17.8964 49.9609 17.851C51.9588 19.1394 54.3266 19.875 56.8799 19.875C65.1794 19.875 69.7169 13 69.7169 7.04075C69.7169 6.84137 69.7101 6.64887 69.7004 6.45775C70.5956 5.8225 71.3477 5.02913 71.9609 4.11613Z" fill="#1D6362"/>
<path fill-rule="evenodd" clip-rule="evenodd" d="M118.836 0H127.086C130.882 0 133.961 3.07862 133.961 6.875V15.125C133.961 18.9214 130.882 22 127.086 22H118.836C115.04 22 111.961 18.9214 111.961 15.125V6.875C111.961 3.07862 115.04 0 118.836 0ZM127.086 19.9375C129.74 19.9375 131.898 17.7787 131.898 15.125V6.875C131.898 4.22125 129.74 2.0625 127.086 2.0625H118.836C116.182 2.0625 114.023 4.22125 114.023 6.875V15.125C114.023 17.7787 116.182 19.9375 118.836 19.9375H127.086Z" fill="#1D6362"/>
<path fill-rule="evenodd" clip-rule="evenodd" d="M117.461 11C117.461 7.96263 119.924 5.5 122.961 5.5C125.998 5.5 128.461 7.96263 128.461 11C128.461 14.0374 125.998 16.5 122.961 16.5C119.924 16.5 117.461 14.0374 117.461 11ZM119.523 11C119.523 12.8948 121.066 14.4375 122.961 14.4375C124.856 14.4375 126.398 12.8948 126.398 11C126.398 9.10388 124.856 7.5625 122.961 7.5625C121.066 7.5625 119.523 9.10388 119.523 11Z" fill="#1D6362"/>
<circle cx="128.874" cy="5.08761" r="0.732875" fill="#1D6362"/>
</svg>
